<svg preserveAspectRatio="none" overflow="visible" style="display: block;" width="48" height="48" viewBox="0 0 48 48" fill="none" xmlns="http://www.w3.org/2000/svg">
<g id="java 1">
<path id="Vector" d="M17.8564 36.795C10.6594 38.8058 22.2353 42.9596 31.3995 39.0334C29.8984 38.4499 28.8218 37.7768 28.8218 37.7768C24.7354 38.5493 22.8398 38.61 19.1302 38.1863C16.0688 37.8356 17.8564 36.795 17.8564 36.795ZM30.3022 32.8725C24.8857 33.9146 21.7571 33.8813 17.7945 33.4725C14.7304 33.1556 16.7363 31.6706 16.7363 31.6706C8.80988 34.3016 21.1489 37.287 32.2271 34.0466C31.0496 33.6319 30.3022 32.8725 30.3022 32.8725ZM34.5469 10.1569C34.5473 10.1569 18.5228 14.1578 26.1758 22.977C28.4348 25.5776 25.5833 27.9158 25.5833 27.9158C25.5833 27.9158 31.3166 24.9566 28.6841 21.2494C26.2245 17.7938 24.339 16.077 34.5469 10.1569ZM38.2961 40.5859C38.2961 40.5859 39.6195 41.6771 36.8381 42.5205C31.5499 44.1225 14.8234 44.6055 10.1775 42.5846C8.50875 41.8579 11.6396 40.8503 12.6248 40.6376C13.6519 40.4153 14.2384 40.4558 14.2384 40.4558C12.3814 39.1481 2.2335 43.0245 9.08512 44.1364C27.768 47.1649 43.1415 42.7725 38.2961 40.5859ZM31.875 29.211C32.7731 28.5983 34.0136 28.0661 34.0136 28.0661C34.0136 28.0661 30.4796 28.698 26.9587 28.9939C22.6485 29.3554 18.0251 29.4266 15.7042 29.1161C10.2097 28.3815 18.7166 26.3606 18.7166 26.3606C18.7166 26.3606 15.4121 26.1371 11.3501 28.1021C6.54562 30.4253 23.2343 31.4843 31.875 29.211ZM33.9784 34.8904C33.9379 34.9991 33.8029 35.1214 33.8029 35.1214C45.5303 32.0385 41.2185 24.2543 35.6111 26.2245C35.1191 26.3985 34.8611 26.8031 34.8611 26.8031C34.8611 26.8031 35.172 26.6779 35.8654 26.5331C38.7 25.9425 42.7613 30.3278 33.9784 34.8904ZM24.0679 26.2759C22.3376 22.365 16.4704 18.9435 24.0705 12.9412C33.5471 5.46112 28.6845 0.595125 28.6845 0.595125C30.6457 8.32313 21.7654 10.6575 18.5599 15.4703C16.377 18.7496 19.6312 22.2735 24.0679 26.2759ZM34.2956 45.6814C27.1005 47.0359 18.2254 46.878 12.963 46.0091C12.963 46.0091 14.0408 46.9016 19.5803 47.2583C28.0088 47.7971 40.9553 46.9583 41.2613 42.9698C41.2616 42.9698 40.6725 44.4818 34.2956 45.6814Z" fill="#3D3226"/>
</g>
</svg>
